# xmcd
#
# Track frame offsets: 
#        150
#        21427
#        39679
#        59241
#        75597
#        94749
#        111227
#        129478
#        147210
#        169098
#        189622
#        206813
#
# Disc length: 3032 seconds
#
# Revision: 3
# Processed by: cddbd v1.5.2PL0 Copyright (c) Steve Scherf et al.
# Submitted via: ExactAudioCopy v1.0b1
#
DISCID=b20bd60c
DTITLE=장나라 - First Story
DYEAR=2001
DGENRE=Ballad
TTITLE0=고백
TTITLE1=눈물에 얼굴을 묻는다
TTITLE2=연
TTITLE3=Make it right
TTITLE4=물고기 자리
TTITLE5=4월 이야기 (April Story)
TTITLE6=눈물에 얼굴을 묻는다 [String Version]
TTITLE7=글루미 선데이
TTITLE8=Blue
TTITLE9=약속 (Promise)
TTITLE10=My pain
TTITLE11=지독한 사랑
EXTD=
EXTT0=
EXTT1=
EXTT2=
EXTT3=
EXTT4=
EXTT5=
EXTT6=
EXTT7=
EXTT8=
EXTT9=
EXTT10=
EXTT11=
PLAYORDER=
